  0
SECTION
  2
HEADER
  9
$ACADVER
  1
AC1014
  9
$ACADMAINTVER
 70
     0
  9
$DWGCODEPAGE
  3
ANSI_1252
  9
$INSBASE
 10
0.0
 20
0.0
 30
0.0
  9
$EXTMIN
 10
0.0
 20
0.0
 30
0.0
  9
$EXTMAX
 10
273.464111
 20
154.386475
 30
2.0
  9
$LIMMIN
 10
0.0
 20
0.0
  9
$LIMMAX
 10
420.0
 20
297.0
  9
$ORTHOMODE
 70
     0
  9
$REGENMODE
 70
     1
  9
$FILLMODE
 70
     1
  9
$QTEXTMODE
 70
     0
  9
$MIRRTEXT
 70
     1
  9
$DRAGMODE
 70
     2
  9
$LTSCALE
 40
1.0
  9
$OSMODE
 70
     0
  9
$ATTMODE
 70
     1
  9
$TEXTSIZE
 40
2.5
  9
$TRACEWID
 40
1.0
  9
$TEXTSTYLE
  7
STANDARD
  9
$CLAYER
  8
0
  9
$CELTYPE
  6
BYLAYER
  9
$CECOLOR
 62
   256
  9
$CELTSCALE
 40
1.0
  9
$DELOBJ
 70
     1
  9
$DISPSILH
 70
     0
  9
$DIMSCALE
 40
1.0
  9
$DIMASZ
 40
2.5
  9
$DIMEXO
 40
0.625
  9
$DIMDLI
 40
3.75
  9
$DIMRND
 40
0.0
  9
$DIMDLE
 40
0.0
  9
$DIMEXE
 40
1.25
  9
$DIMTP
 40
0.0
  9
$DIMTM
 40
0.0
  9
$DIMTXT
 40
2.5
  9
$DIMCEN
 40
2.5
  9
$DIMTSZ
 40
0.0
  9
$DIMTOL
 70
     0
  9
$DIMLIM
 70
     0
  9
$DIMTIH
 70
     0
  9
$DIMTOH
 70
     0
  9
$DIMSE1
 70
     0
  9
$DIMSE2
 70
     0
  9
$DIMTAD
 70
     1
  9
$DIMZIN
 70
     8
  9
$DIMBLK
  1

  9
$DIMASO
 70
     1
  9
$DIMSHO
 70
     1
  9
$DIMPOST
  1

  9
$DIMAPOST
  1

  9
$DIMALT
 70
     0
  9
$DIMALTD
 70
     3
  9
$DIMALTF
 40
0.03937
  9
$DIMLFAC
 40
1.0
  9
$DIMTOFL
 70
     1
  9
$DIMTVP
 40
0.0
  9
$DIMTIX
 70
     0
  9
$DIMSOXD
 70
     0
  9
$DIMSAH
 70
     0
  9
$DIMBLK1
  1

  9
$DIMBLK2
  1

  9
$DIMSTYLE
  2

  9
$DIMCLRD
 70
     0
  9
$DIMCLRE
 70
     0
  9
$DIMCLRT
 70
     0
  9
$DIMTFAC
 40
1.0
  9
$DIMGAP
 40
0.625
  9
$DIMJUST
 70
     0
  9
$DIMSD1
 70
     0
  9
$DIMSD2
 70
     0
  9
$DIMTOLJ
 70
     0
  9
$DIMTZIN
 70
     8
  9
$DIMALTZ
 70
     0
  9
$DIMALTTZ
 70
     0
  9
$DIMFIT
 70
     0
  9
$DIMUPT
 70
     0
  9
$DIMUNIT
 70
     2
  9
$DIMDEC
 70
     2
  9
$DIMTDEC
 70
     2
  9
$DIMALTU
 70
     2
  9
$DIMALTTD
 70
     3
  9
$DIMTXSTY
  7
STANDARD
  9
$DIMAUNIT
 70
     0
  9
$LUNITS
 70
     2
  9
$LUPREC
 70
     4
  9
$SKETCHINC
 40
1.0
  9
$FILLETRAD
 40
2.5
  9
$AUNITS
 70
     0
  9
$AUPREC
 70
     0
  9
$MENU
  1
.
  9
$ELEVATION
 40
0.0
  9
$PELEVATION
 40
0.0
  9
$THICKNESS
 40
0.0
  9
$LIMCHECK
 70
     0
  9
$BLIPMODE
 70
     1
  9
$CHAMFERA
 40
2.5
  9
$CHAMFERB
 40
2.5
  9
$CHAMFERC
 40
0.0
  9
$CHAMFERD
 40
0.0
  9
$SKPOLY
 70
     0
  9
$TDCREATE
 40
0.000000000
  9
$TDUPDATE
 40
0.000000000
  9
$TDINDWG
 40
0.0000000000
  9
$TDUSRTIMER
 40
0.0000000000
  9
$USRTIMER
 70
     1
  9
$ANGBASE
 50
0.0
  9
$ANGDIR
 70
     0
  9
$PDMODE
 70
     0
  9
$PDSIZE
 40
0.0
  9
$PLINEWID
 40
0.0
  9
$COORDS
 70
     0
  9
$SPLFRAME
 70
     0
  9
$SPLINETYPE
 70
     6
  9
$SPLINESEGS
 70
     8
  9
$ATTDIA
 70
     0
  9
$ATTREQ
 70
     1
  9
$HANDLING
 70
     1
  9
$HANDSEED
  5
107
  9
$SURFTAB1
 70
     6
  9
$SURFTAB2
 70
     6
  9
$SURFTYPE
 70
     6
  9
$SURFU
 70
     6
  9
$SURFV
 70
     6
  9
$UCSNAME
  2

  9
$UCSORG
 10
0.0
 20
0.0
 30
0.0
  9
$UCSXDIR
 10
1.0
 20
0.0
 30
0.0
  9
$UCSYDIR
 10
0.0
 20
1.0
 30
0.0
  9
$PUCSNAME
  2

  9
$PUCSORG
 10
0.0
 20
0.0
 30
0.0
  9
$PUCSXDIR
 10
1.0
 20
0.0
 30
0.0
  9
$PUCSYDIR
 10
0.0
 20
1.0
 30
0.0
  9
$USERI1
 70
     0
  9
$USERI2
 70
     0
  9
$USERI3
 70
     0
  9
$USERI4
 70
     0
  9
$USERI5
 70
     0
  9
$USERR1
 40
0.0
  9
$USERR2
 40
0.0
  9
$USERR3
 40
0.0
  9
$USERR4
 40
0.0
  9
$USERR5
 40
0.0
  9
$WORLDVIEW
 70
     1
  9
$SHADEDGE
 70
     3
  9
$SHADEDIF
 70
    70
  9
$TILEMODE
 70
     1
  9
$MAXACTVP
 70
    48
  9
$PINSBASE
 10
0.0
 20
0.0
 30
0.0
  9
$PLIMCHECK
 70
     0
  9
$PEXTMIN
 10
0.0
 20
0.0
 30
0.0
  9
$PEXTMAX
 10
273.464111
 20
154.386475
 30
2.0
  9
$PLIMMIN
 10
0.0
 20
0.0
  9
$PLIMMAX
 10
420.0
 20
297.0
  9
$UNITMODE
 70
     0
  9
$VISRETAIN
 70
     0
  9
$PLINEGEN
 70
     0
  9
$PSLTSCALE
 70
     1
  9
$TREEDEPTH
 70
  3020
  9
$PICKSTYLE
 70
     1
  9
$CMLSTYLE
  2
STANDARD
  9
$CMLJUST
 70
     0
  9
$CMLSCALE
 40
20.0
  9
$PROXYGRAPHICS
 70
     1
  9
$MEASUREMENT
 70
     1
  0
ENDSEC
  0
SECTION
  2
CLASSES
  0
CLASS
  1
LWPOLYLINE
  2
AcDbPolyline
  3
"AutoCAD"
 90
        0
280
     0
281
     1
  0
CLASS
  1
IMAGE
  2
AcDbRasterImage
  3
ISM
 90
      127
280
     0
281
     1
  0
CLASS
  1
OLE2FRAME
  2
AcDbOle2Frame
  3
""
 90
        0
280
     0
281
     1
  0
CLASS
  1
HATCH
  2
AcDbHatch
  3
"ACAD_SEDONA"
 90
        0
280
     0
281
     1
  0
CLASS
  1
DICTIONARYVAR
  2
AcDbDictionaryVar
  3
"AutoCAD"
 90
        0
280
     0
281
     0
  0
CLASS
  1
RASTERVARIABLES
  2
AcDbRasterVariables
  3
ISM
 90
        0
280
     0
281
     0
  0
CLASS
  1
IMAGEDEF
  2
AcDbRasterImageDef
  3
ISM
 90
        0
280
     0
281
     0
  0
CLASS
  1
IMAGEDEF_REACTOR
  2
AcDbRasterImageDefReactor
  3
ISM
 90
        1
280
     0
281
     0
  0
CLASS
  1
IDBUFFER
  2
AcDbIdBuffer
  3
"Acad"
 90
        0
280
     0
281
     0
  0
CLASS
  1
SPATIAL_FILTER
  2
AcDbSpatialFilter
  3
"Acad"
 90
        0
280
     0
281
     0
  0
CLASS
  1
XRECORD
  2
AcDbXrecord
  3
"<Built In>"
 90
        0
280
     0
281
     0
  0
CLASS
  1
SORTENTSTABLE
  2
AcDbSortentsTable
  3
"AutoCAD"
 90
        0
280
     0
281
     0
  0
CLASS
  1
LAYER_INDEX
  2
AcDbLayerIndex
  3
"Acad"
 90
        0
280
     0
281
     0
  0
CLASS
  1
SPATIAL_INDEX
  2
AcDbSpatialIndex
  3
"Acad"
 90
        0
280
     0
281
     0
  0
CLASS
  1
OBJECT_PTR
  2
CAseDLPNTableRecord
  3
"ASE-LPNTableRecord"
 90
        1
280
     0
281
     0
  0
CLASS
  1
LAYOUT
  2
AcDbLayout
  3
"AutoCAD 2000"
 90
        0
280
     0
281
     0
  0
CLASS
  1
PLOTSETTINGS
  2
AcDbPlotSettings
  3
"AutoCAD 2000"
 90
        0
280
     0
281
     0
  0
CLASS
  1
ACDBDICTIONARYWDFLT
  2
AcDbDictionaryWithDefault
  3
"AutoCAD 2000"
 90
        0
280
     0
281
     0
  0
CLASS
  1
ACDBPLACEHOLDER
  2
AcDbPlaceHolder
  3
"AutoCAD 2000"
 90
        0
280
     0
281
     0
  0
CLASS
  1
VBA_PROJECT
  2
AcDbVbaProject
  3
"acadvba"
 90
        0
280
     0
281
     0
  0
CLASS
  1
WIPEOUT
  2
AcDbWipeout
  3
WipeOut|AutoCAD Express Tool|expresstools@autodesk.com
 90
      127
280
     0
281
     1
  0
CLASS
  1
WIPEOUTVARIABLES
  2
AcDbWipeoutVariables
  3
WipeOut|AutoCAD Express Tool|expresstools@autodesk.com
 90
        0
280
     0
281
     0
  0
CLASS
  1
RTEXT
  2
RText
  3
RText|AutoCAD Express Tool|expresstools@autodesk.com
 90
        0
280
     0
281
     1
  0
CLASS
  1
ARCALIGNEDTEXT
  2
AcDbArcAlignedText
  3
ATEXT|AutoCAD Express Tool|expresstools@autodesk.com
 90
        0
280
     0
281
     1
  0
ENDSEC
  0
SECTION
  2
TABLES
  0
TABLE
  2
VPORT
  5
7
100
AcDbSymbolTable
 70
     1
  0
VPORT
  5
15
100
AcDbSymbolTableRecord
100
AcDbViewportTableRecord
  2
*ACTIVE
 70
     0
 10
0.0
 20
0.0
 11
1.0
 21
1.0
 12
6.591288
 22
4.579184
 13
0.0
 23
0.0
 14
1.0
 24
1.0
 15
0.0
 25
0.0
 16
0.0
 26
0.0
 36
1.0
 17
0.0
 27
0.0
 37
0.0
 40
9.158369
 41
0.688564
 42
50.0
 43
0.0
 44
0.0
 50
0.0
 51
0.0
 71
     0
 72
   100
 73
     1
 74
     1
 75
     0
 76
     0
 77
     0
 78
     0
  0
ENDTAB
  0
TABLE
  2
LTYPE
  5
4
100
AcDbSymbolTable
 70
    10
  0
LTYPE
  5
11
100
AcDbSymbolTableRecord
100
AcDbLinetypeTableRecord
  2
BYBLOCK
 70
    64
  3

 72
    65
 73
     0
 40
0.0
  0
LTYPE
  5
12
100
AcDbSymbolTableRecord
100
AcDbLinetypeTableRecord
  2
BYLAYER
 70
    64
  3

 72
    65
 73
     0
 40
0.0
  0
LTYPE
  5
13
100
AcDbSymbolTableRecord
100
AcDbLinetypeTableRecord
  2
CONTINUOUS
 70
    64
  3
Solid line
 72
    65
 73
     0
 40
0.0
  0
LTYPE
  5
1D
100
AcDbSymbolTableRecord
100
AcDbLinetypeTableRecord
  2
DASHED
 70
     0
  3
__ __ __ __ __ __ __ __ __ __ __ __ __ __ __ __
 72
    65
 73
     2
 40
15.0
 49
12.0
 74
     0
 49
-3.0
 74
     0
  0
LTYPE
  5
1E
100
AcDbSymbolTableRecord
100
AcDbLinetypeTableRecord
  2
DASHDOT
 70
     0
  3
 __ . __ . __ . __ . __ . __ . __ . 
 72
    65
 73
     4
 40
18.5
 49
12.0
 74
     0
 49
-3.0
 74
     0
 49
0.5
 74
     0
 49
-3.0
 74
     0
  0
LTYPE
  5
1F
100
AcDbSymbolTableRecord
100
AcDbLinetypeTableRecord
  2
DOT
 70
     0
  3
 . . . . . . . . . . . . . . . .
 72
    65
 73
     2
 40
3.5
 49
0.5
 74
     0
 49
-3.0
 74
     0
  0
LTYPE
  5
20
100
AcDbSymbolTableRecord
100
AcDbLinetypeTableRecord
  2
DASHSPACE
 70
     0
  3
__    __    __    __    __   
 72
    65
 73
     2
 40
30.0
 49
12.0
 74
     0
 49
-18.0
 74
     0
  0
LTYPE
  5
21
100
AcDbSymbolTableRecord
100
AcDbLinetypeTableRecord
  2
DASHDOT2
 70
     0
  3
__ . . __ . . __ . . __ 
 72
    65
 73
     6
 40
22.0
 49
12.0
 74
     0
 49
-3.0
 74
     0
 49
0.5
 74
     0
 49
-3.0
 74
     0
 49
0.5
 74
     0
 49
-3.0
 74
     0
  0
LTYPE
  5
22
100
AcDbSymbolTableRecord
100
AcDbLinetypeTableRecord
  2
PHANTOM
 70
     0
  3
____________    ____    ____   _
 72
    65
 73
     6
 40
20.0
 49
10.0
 74
     0
 49
-2.0
 74
     0
 49
2.0
 74
     0
 49
-2.0
 74
     0
 49
2.0
 74
     0
 49
-2.0
 74
     0
  0
LTYPE
  5
23
100
AcDbSymbolTableRecord
100
AcDbLinetypeTableRecord
  2
AXES
 70
     0
  3
________  __  ________  __  _____
 72
    65
 73
     4
 40
24.0
 49
15.0
 74
     0
 49
-3.0
 74
     0
 49
3.0
 74
     0
 49
-3.0
 74
     0
  0
ENDTAB
  0
TABLE
  2
LAYER
  5
2
100
AcDbSymbolTable
 70
     1
  0
LAYER
  5
14
100
AcDbSymbolTableRecord
100
AcDbLayerTableRecord
  2
0
 70
     0
 62
     7
  6
CONTINUOUS
  0
ENDTAB
  0
TABLE
  2
STYLE
  5
3
100
AcDbSymbolTable
 70
     1
  0
STYLE
  5
17
100
AcDbSymbolTableRecord
100
AcDbTextStyleTableRecord
  2
STANDARD
 70
     0
 40
0.0
 41
1.0
 50
0.0
 71
     0
 42
0.0
  3
txt
  4

  0
ENDTAB
  0
TABLE
  2
VIEW
  5
5
100
AcDbSymbolTable
 70
     0
  0
ENDTAB
  0
TABLE
  2
UCS
  5
6
100
AcDbSymbolTable
 70
     0
  0
ENDTAB
  0
TABLE
  2
APPID
  5
8
100
AcDbSymbolTable
 70
     1
  0
APPID
  5
16
100
AcDbSymbolTableRecord
100
AcDbRegAppTableRecord
  2
ACAD
 70
     0
  0
ENDTAB
  0
TABLE
  2
DIMSTYLE
  5
9
100
AcDbSymbolTable
 70
     1
  0
DIMSTYLE
105
18
100
AcDbSymbolTableRecord
100
AcDbDimStyleTableRecord
  2
STANDARD
 70
     0
  3

  4

  5

  6

  7

 40
1.0
 41
0.18
 42
0.0625
 43
0.38
 44
0.18
 45
0.0
 46
0.0
 47
0.0
 48
0.0
 71
     0
 72
     0
 73
     1
 74
     1
 75
     0
 76
     0
 77
     0
 78
     0
140
0.18
141
0.09
142
0.0
143
25.4
144
1.0
145
0.0
146
1.0
147
0.09
170
     0
171
     2
172
     0
173
     0
174
     0
175
     0
176
     0
177
     0
178
     0
270
     2
271
     4
272
     4
273
     2
274
     2
275
     0
280
     0
281
     0
282
     0
283
     1
284
     0
285
     0
286
     0
287
     3
288
     0
340
17
  0
ENDTAB
  0
TABLE
  2
BLOCK_RECORD
  5
1
100
AcDbSymbolTable
 70
     0
  0
BLOCK_RECORD
  5
A
100
AcDbSymbolTableRecord
100
AcDbBlockTableRecord
  2
*MODEL_SPACE
  0
BLOCK_RECORD
  5
B
100
AcDbSymbolTableRecord
100
AcDbBlockTableRecord
  2
*PAPER_SPACE
  0
ENDTAB
  0
ENDSEC
  0
SECTION
  2
BLOCKS
  0
BLOCK
  5
D
100
AcDbEntity
  8
0
100
AcDbBlockBegin
  2
*MODEL_SPACE
 70
     0
 10
0.0
 20
0.0
 30
0.0
  3
*MODEL_SPACE
  1

  0
ENDBLK
  5
E
100
AcDbEntity
  8
0
100
AcDbBlockEnd
  0
BLOCK
  5
F
100
AcDbEntity
 67
     1
  8
0
100
AcDbBlockBegin
  2
*PAPER_SPACE
 70
     0
 10
0.0
 20
0.0
 30
0.0
  3
*PAPER_SPACE
  1

  0
ENDBLK
  5
10
100
AcDbEntity
 67
     1
  8
0
100
AcDbBlockEnd
  0
ENDSEC
  0
SECTION
  2
ENTITIES
  0
VIEWPORT
  5
106
100
AcDbEntity
 67
     1
  8
0
 62
     0
 48
0.0
100
AcDbViewport
 10
0.0
 20
0.0
 30
0.0
 40
1000.0
 41
1000.0
 68
     1
 69
     1
1001
ACAD
1000
MVIEW
1002
{
1070
    16
1010
0.0
1020
0.0
1030
0.0
1010
0.0
1020
0.0
1030
1.0
1040
0.0
1040
1000.0
1040
0.0
1040
0.0
1040
50.0
1040
0.0
1040
0.0
1070
     0
1070
   100
1070
     1
1070
     1
1070
     0
1070
     0
1070
     0
1070
     0
1040
0.0
1040
0.0
1040
0.0
1040
1.0
1040
1.0
1040
1.0
1040
1.0
1070
     0
1002
{
1002
}
1002
}
  0
POLYLINE
  5
24
100
AcDbEntity
  8
0
 62
     7
100
AcDb2dPolyline
 66
     1
 10
0.0
 20
0.0
 30
0.0
 70
     1
 71
     8
  0
VERTEX
  5
25
100
AcDbEntity
  8
0
100
AcDbVertex
100
AcDb2dVertex
 10
-98.510002
 20
85.006073
 30
0.0
  0
VERTEX
  5
26
100
AcDbEntity
  8
0
100
AcDbVertex
100
AcDb2dVertex
 10
-91.88176
 20
85.006073
 30
0.0
  0
VERTEX
  5
27
100
AcDbEntity
  8
0
100
AcDbVertex
100
AcDb2dVertex
 10
-91.88176
 20
128.954193
 30
0.0
  0
VERTEX
  5
28
100
AcDbEntity
  8
0
100
AcDbVertex
100
AcDb2dVertex
 10
-76.752075
 20
128.954193
 30
0.0
  0
VERTEX
  5
29
100
AcDbEntity
  8
0
100
AcDbVertex
100
AcDb2dVertex
 10
-76.752075
 20
135.006073
 30
0.0
  0
VERTEX
  5
2A
100
AcDbEntity
  8
0
100
AcDbVertex
100
AcDb2dVertex
 10
-113.711731
 20
135.006073
 30
0.0
  0
VERTEX
  5
2B
100
AcDbEntity
  8
0
100
AcDbVertex
100
AcDb2dVertex
 10
-113.711731
 20
128.954193
 30
0.0
  0
VERTEX
  5
2C
100
AcDbEntity
  8
0
100
AcDbVertex
100
AcDb2dVertex
 10
-98.510002
 20
128.954193
 30
0.0
  0
SEQEND
  5
2D
100
AcDbEntity
  8
0
  0
POLYLINE
  5
2E
100
AcDbEntity
  8
0
 62
     7
100
AcDb2dPolyline
 66
     1
 10
0.0
 20
0.0
 30
0.0
 70
     1
 71
    28
  0
VERTEX
  5
2F
100
AcDbEntity
  8
0
100
AcDbVertex
100
AcDb2dVertex
 10
-67.890411
 20
85.006073
 30
0.0
  0
VERTEX
  5
30
100
AcDbEntity
  8
0
100
AcDbVertex
100
AcDb2dVertex
 10
-61.190117
 20
85.006073
 30
0.0
  0
VERTEX
  5
31
100
AcDbEntity
  8
0
100
AcDbVertex
100
AcDb2dVertex
 10
-61.190117
 20
106.115585
 30
0.0
  0
VERTEX
  5
32
100
AcDbEntity
  8
0
100
AcDbVertex
100
AcDb2dVertex
 10
-54.345737
 20
106.115585
 30
0.0
  0
VERTEX
  5
33
100
AcDbEntity
  8
0
100
AcDbVertex
100
AcDb2dVertex
 10
-49.302513
 20
105.899445
 30
0.0
  0
VERTEX
  5
34
100
AcDbEntity
  8
0
100
AcDbVertex
100
AcDb2dVertex
 10
-46.132484
 20
104.8908
 30
0.0
  0
VERTEX
  5
35
100
AcDbEntity
  8
0
100
AcDbVertex
100
AcDb2dVertex
 10
-44.403374
 20
102.513275
 30
0.0
  0
VERTEX
  5
36
100
AcDbEntity
  8
0
100
AcDbVertex
100
AcDb2dVertex
 10
-43.682915
 20
98.262558
 30
0.0
  0
VERTEX
  5
37
100
AcDbEntity
  8
0
100
AcDbVertex
100
AcDb2dVertex
 10
-43.322685
 20
91.778404
 30
0.0
  0
VERTEX
  5
38
100
AcDbEntity
  8
0
100
AcDbVertex
100
AcDb2dVertex
 10
-42.890404
 20
87.527687
 30
0.0
  0
VERTEX
  5
39
100
AcDbEntity
  8
0
100
AcDbVertex
100
AcDb2dVertex
 10
-42.025856
 20
85.006073
 30
0.0
  0
VERTEX
  5
3A
100
AcDbEntity
  8
0
100
AcDbVertex
100
AcDb2dVertex
 10
-34.461014
 20
85.006073
 30
0.0
  0
VERTEX
  5
3B
100
AcDbEntity
  8
0
100
AcDbVertex
100
AcDb2dVertex
 10
-34.461014
 20
86.374947
 30
0.0
  0
VERTEX
  5
3C
100
AcDbEntity
  8
0
100
AcDbVertex
100
AcDb2dVertex
 10
-36.118073
 20
88.392242
 30
0.0
  0
VERTEX
  5
3D
100
AcDbEntity
  8
0
100
AcDbVertex
100
AcDb2dVertex
 10
-36.694443
 20
92.138641
 30
0.0
  0
VERTEX
  5
3E
100
AcDbEntity
  8
0
100
AcDbVertex
100
AcDb2dVertex
 10
-37.198761
 20
100.207802
 30
0.0
  0
VERTEX
  5
3F
100
AcDbEntity
  8
0
100
AcDbVertex
100
AcDb2dVertex
 10
-38.423546
 20
106.18763
 30
0.0
  0
VERTEX
  5
40
100
AcDbEntity
  8
0
100
AcDbVertex
100
AcDb2dVertex
 10
-40.080605
 20
108.060829
 30
0.0
  0
VERTEX
  5
41
100
AcDbEntity
  8
0
100
AcDbVertex
100
AcDb2dVertex
 10
-42.674271
 20
109.429703
 30
0.0
  0
VERTEX
  5
42
100
AcDbEntity
  8
0
100
AcDbVertex
100
AcDb2dVertex
 10
-39.792427
 20
111.230858
 30
0.0
  0
VERTEX
  5
43
100
AcDbEntity
  8
0
100
AcDbVertex
100
AcDb2dVertex
 10
-37.775131
 20
113.752472
 30
0.0
  0
VERTEX
  5
44
100
AcDbEntity
  8
0
100
AcDbVertex
100
AcDb2dVertex
 10
-36.478302
 20
116.922501
 30
0.0
  0
VERTEX
  5
45
100
AcDbEntity
  8
0
100
AcDbVertex
100
AcDb2dVertex
 10
-36.046028
 20
120.740944
 30
0.0
  0
VERTEX
  5
46
100
AcDbEntity
  8
0
100
AcDbVertex
100
AcDb2dVertex
 10
-37.054672
 20
126.792816
 30
0.0
  0
VERTEX
  5
47
100
AcDbEntity
  8
0
100
AcDbVertex
100
AcDb2dVertex
 10
-39.936516
 20
131.331726
 30
0.0
  0
VERTEX
  5
48
100
AcDbEntity
  8
0
100
AcDbVertex
100
AcDb2dVertex
 10
-44.691559
 20
134.069473
 30
0.0
  0
VERTEX
  5
49
100
AcDbEntity
  8
0
100
AcDbVertex
100
AcDb2dVertex
 10
-51.175705
 20
135.006073
 30
0.0
  0
VERTEX
  5
4A
100
AcDbEntity
  8
0
100
AcDbVertex
100
AcDb2dVertex
 10
-67.890411
 20
135.006073
 30
0.0
  0
SEQEND
  5
4B
100
AcDbEntity
  8
0
  0
POLYLINE
  5
4C
100
AcDbEntity
  8
0
 62
     7
100
AcDb2dPolyline
 66
     1
 10
0.0
 20
0.0
 30
0.0
 70
     1
 71
    11
  0
VERTEX
  5
4D
100
AcDbEntity
  8
0
100
AcDbVertex
100
AcDb2dVertex
 10
-53.048908
 20
128.882156
 30
0.0
  0
VERTEX
  5
4E
100
AcDbEntity
  8
0
100
AcDbVertex
100
AcDb2dVertex
 10
-48.654091
 20
128.449875
 30
0.0
  0
VERTEX
  5
4F
100
AcDbEntity
  8
0
100
AcDbVertex
100
AcDb2dVertex
 10
-45.556114
 20
127.081001
 30
0.0
  0
VERTEX
  5
50
100
AcDbEntity
  8
0
100
AcDbVertex
100
AcDb2dVertex
 10
-43.61087
 20
124.559387
 30
0.0
  0
VERTEX
  5
51
100
AcDbEntity
  8
0
100
AcDbVertex
100
AcDb2dVertex
 10
-42.962456
 20
120.596848
 30
0.0
  0
VERTEX
  5
52
100
AcDbEntity
  8
0
100
AcDbVertex
100
AcDb2dVertex
 10
-43.682915
 20
116.418175
 30
0.0
  0
VERTEX
  5
53
100
AcDbEntity
  8
0
100
AcDbVertex
100
AcDb2dVertex
 10
-45.628159
 20
113.896561
 30
0.0
  0
VERTEX
  5
54
100
AcDbEntity
  8
0
100
AcDbVertex
100
AcDb2dVertex
 10
-48.942276
 20
112.599731
 30
0.0
  0
VERTEX
  5
55
100
AcDbEntity
  8
0
100
AcDbVertex
100
AcDb2dVertex
 10
-53.481182
 20
112.239502
 30
0.0
  0
VERTEX
  5
56
100
AcDbEntity
  8
0
100
AcDbVertex
100
AcDb2dVertex
 10
-61.190117
 20
112.239502
 30
0.0
  0
VERTEX
  5
57
100
AcDbEntity
  8
0
100
AcDbVertex
100
AcDb2dVertex
 10
-61.190117
 20
128.882156
 30
0.0
  0
SEQEND
  5
58
100
AcDbEntity
  8
0
  0
POLYLINE
  5
59
100
AcDbEntity
  8
0
 62
     7
100
AcDb2dPolyline
 66
     1
 10
0.0
 20
0.0
 30
0.0
 70
     1
 71
    12
  0
VERTEX
  5
5A
100
AcDbEntity
  8
0
100
AcDbVertex
100
AcDb2dVertex
 10
-11.766487
 20
91.057945
 30
0.0
  0
VERTEX
  5
5B
100
AcDbEntity
  8
0
100
AcDbVertex
100
AcDb2dVertex
 10
-20.988388
 20
91.057945
 30
0.0
  0
VERTEX
  5
5C
100
AcDbEntity
  8
0
100
AcDbVertex
100
AcDb2dVertex
 10
-20.988388
 20
85.006073
 30
0.0
  0
VERTEX
  5
5D
100
AcDbEntity
  8
0
100
AcDbVertex
100
AcDb2dVertex
 10
4.083656
 20
85.006073
 30
0.0
  0
VERTEX
  5
5E
100
AcDbEntity
  8
0
100
AcDbVertex
100
AcDb2dVertex
 10
4.083656
 20
91.057945
 30
0.0
  0
VERTEX
  5
5F
100
AcDbEntity
  8
0
100
AcDbVertex
100
AcDb2dVertex
 10
-5.138245
 20
91.057945
 30
0.0
  0
VERTEX
  5
60
100
AcDbEntity
  8
0
100
AcDbVertex
100
AcDb2dVertex
 10
-5.138245
 20
128.954193
 30
0.0
  0
VERTEX
  5
61
100
AcDbEntity
  8
0
100
AcDbVertex
100
AcDb2dVertex
 10
4.083656
 20
128.954193
 30
0.0
  0
VERTEX
  5
62
100
AcDbEntity
  8
0
100
AcDbVertex
100
AcDb2dVertex
 10
4.083656
 20
135.006073
 30
0.0
  0
VERTEX
  5
63
100
AcDbEntity
  8
0
100
AcDbVertex
100
AcDb2dVertex
 10
-20.988388
 20
135.006073
 30
0.0
  0
VERTEX
  5
64
100
AcDbEntity
  8
0
100
AcDbVertex
100
AcDb2dVertex
 10
-20.988388
 20
128.954193
 30
0.0
  0
VERTEX
  5
65
100
AcDbEntity
  8
0
100
AcDbVertex
100
AcDb2dVertex
 10
-11.766487
 20
128.954193
 30
0.0
  0
SEQEND
  5
66
100
AcDbEntity
  8
0
  0
POLYLINE
  5
67
100
AcDbEntity
  8
0
 62
     7
100
AcDb2dPolyline
 66
     1
 10
0.0
 20
0.0
 30
0.0
 70
     1
 71
    18
  0
VERTEX
  5
68
100
AcDbEntity
  8
0
100
AcDbVertex
100
AcDb2dVertex
 10
16.403534
 20
110.006073
 30
0.0
  0
VERTEX
  5
69
100
AcDbEntity
  8
0
100
AcDbVertex
100
AcDb2dVertex
 10
17.700363
 20
98.766876
 30
0.0
  0
VERTEX
  5
6A
100
AcDbEntity
  8
0
100
AcDbVertex
100
AcDb2dVertex
 10
21.446762
 20
90.481575
 30
0.0
  0
VERTEX
  5
6B
100
AcDbEntity
  8
0
100
AcDbVertex
100
AcDb2dVertex
 10
27.282501
 20
85.366302
 30
0.0
  0
VERTEX
  5
6C
100
AcDbEntity
  8
0
100
AcDbVertex
100
AcDb2dVertex
 10
34.919388
 20
83.637199
 30
0.0
  0
VERTEX
  5
6D
100
AcDbEntity
  8
0
100
AcDbVertex
100
AcDb2dVertex
 10
42.484222
 20
85.366302
 30
0.0
  0
VERTEX
  5
6E
100
AcDbEntity
  8
0
100
AcDbVertex
100
AcDb2dVertex
 10
48.392014
 20
90.481575
 30
0.0
  0
VERTEX
  5
6F
100
AcDbEntity
  8
0
100
AcDbVertex
100
AcDb2dVertex
 10
52.06636
 20
98.766876
 30
0.0
  0
VERTEX
  5
70
100
AcDbEntity
  8
0
100
AcDbVertex
100
AcDb2dVertex
 10
53.435226
 20
110.006073
 30
0.0
  0
VERTEX
  5
71
100
AcDbEntity
  8
0
100
AcDbVertex
100
AcDb2dVertex
 10
52.06636
 20
121.173218
 30
0.0
  0
VERTEX
  5
72
100
AcDbEntity
  8
0
100
AcDbVertex
100
AcDb2dVertex
 10
50.481339
 20
125.712128
 30
0.0
  0
VERTEX
  5
73
100
AcDbEntity
  8
0
100
AcDbVertex
100
AcDb2dVertex
 10
48.392014
 20
129.458527
 30
0.0
  0
VERTEX
  5
74
100
AcDbEntity
  8
0
100
AcDbVertex
100
AcDb2dVertex
 10
42.484222
 20
134.573792
 30
0.0
  0
VERTEX
  5
75
100
AcDbEntity
  8
0
100
AcDbVertex
100
AcDb2dVertex
 10
38.881927
 20
135.870621
 30
0.0
  0
VERTEX
  5
76
100
AcDbEntity
  8
0
100
AcDbVertex
100
AcDb2dVertex
 10
34.919388
 20
136.374939
 30
0.0
  0
VERTEX
  5
77
100
AcDbEntity
  8
0
100
AcDbVertex
100
AcDb2dVertex
 10
27.210449
 20
134.573792
 30
0.0
  0
VERTEX
  5
78
100
AcDbEntity
  8
0
100
AcDbVertex
100
AcDb2dVertex
 10
21.37471
 20
129.530563
 30
0.0
  0
VERTEX
  5
79
100
AcDbEntity
  8
0
100
AcDbVertex
100
AcDb2dVertex
 10
17.700363
 20
121.24527
 30
0.0
  0
SEQEND
  5
7A
100
AcDbEntity
  8
0
  0
POLYLINE
  5
7B
100
AcDbEntity
  8
0
 62
     7
100
AcDb2dPolyline
 66
     1
 10
0.0
 20
0.0
 30
0.0
 70
     1
 71
    16
  0
VERTEX
  5
7C
100
AcDbEntity
  8
0
100
AcDbVertex
100
AcDb2dVertex
 10
23.319962
 20
110.006073
 30
0.0
  0
VERTEX
  5
7D
100
AcDbEntity
  8
0
100
AcDbVertex
100
AcDb2dVertex
 10
24.112473
 20
118.723648
 30
0.0
  0
VERTEX
  5
7E
100
AcDbEntity
  8
0
100
AcDbVertex
100
AcDb2dVertex
 10
26.48999
 20
125.135757
 30
0.0
  0
VERTEX
  5
7F
100
AcDbEntity
  8
0
100
AcDbVertex
100
AcDb2dVertex
 10
30.164337
 20
129.026245
 30
0.0
  0
VERTEX
  5
80
100
AcDbEntity
  8
0
100
AcDbVertex
100
AcDb2dVertex
 10
34.919388
 20
130.395126
 30
0.0
  0
VERTEX
  5
81
100
AcDbEntity
  8
0
100
AcDbVertex
100
AcDb2dVertex
 10
39.602386
 20
129.026245
 30
0.0
  0
VERTEX
  5
82
100
AcDbEntity
  8
0
100
AcDbVertex
100
AcDb2dVertex
 10
43.276733
 20
125.063705
 30
0.0
  0
VERTEX
  5
83
100
AcDbEntity
  8
0
100
AcDbVertex
100
AcDb2dVertex
 10
45.654251
 20
118.651611
 30
0.0
  0
VERTEX
  5
84
100
AcDbEntity
  8
0
100
AcDbVertex
100
AcDb2dVertex
 10
46.518814
 20
110.006073
 30
0.0
  0
VERTEX
  5
85
100
AcDbEntity
  8
0
100
AcDbVertex
100
AcDb2dVertex
 10
45.654251
 20
101.288498
 30
0.0
  0
VERTEX
  5
86
100
AcDbEntity
  8
0
100
AcDbVertex
100
AcDb2dVertex
 10
43.276733
 20
94.876389
 30
0.0
  0
VERTEX
  5
87
100
AcDbEntity
  8
0
100
AcDbVertex
100
AcDb2dVertex
 10
39.602386
 20
90.985901
 30
0.0
  0
VERTEX
  5
88
100
AcDbEntity
  8
0
100
AcDbVertex
100
AcDb2dVertex
 10
34.919388
 20
89.689072
 30
0.0
  0
VERTEX
  5
89
100
AcDbEntity
  8
0
100
AcDbVertex
100
AcDb2dVertex
 10
30.164337
 20
90.985901
 30
0.0
  0
VERTEX
  5
8A
100
AcDbEntity
  8
0
100
AcDbVertex
100
AcDb2dVertex
 10
26.48999
 20
94.876389
 30
0.0
  0
VERTEX
  5
8B
100
AcDbEntity
  8
0
100
AcDbVertex
100
AcDb2dVertex
 10
24.112473
 20
101.216446
 30
0.0
  0
SEQEND
  5
8C
100
AcDbEntity
  8
0
  0
POLYLINE
  5
8D
100
AcDbEntity
  8
0
 62
     7
100
AcDb2dPolyline
 66
     1
 10
0.0
 20
0.0
 30
0.0
 70
     1
 71
    13
  0
VERTEX
  5
8E
100
AcDbEntity
  8
0
100
AcDbVertex
100
AcDb2dVertex
 10
60.279602
 20
85.006073
 30
0.0
  0
VERTEX
  5
8F
100
AcDbEntity
  8
0
100
AcDbVertex
100
AcDb2dVertex
 10
65.827164
 20
85.006073
 30
0.0
  0
VERTEX
  5
90
100
AcDbEntity
  8
0
100
AcDbVertex
100
AcDb2dVertex
 10
65.827164
 20
130.395126
 30
0.0
  0
VERTEX
  5
91
100
AcDbEntity
  8
0
100
AcDbVertex
100
AcDb2dVertex
 10
75.193146
 20
85.006073
 30
0.0
  0
VERTEX
  5
92
100
AcDbEntity
  8
0
100
AcDbVertex
100
AcDb2dVertex
 10
81.389114
 20
85.006073
 30
0.0
  0
VERTEX
  5
93
100
AcDbEntity
  8
0
100
AcDbVertex
100
AcDb2dVertex
 10
90.68306
 20
130.395126
 30
0.0
  0
VERTEX
  5
94
100
AcDbEntity
  8
0
100
AcDbVertex
100
AcDb2dVertex
 10
90.68306
 20
85.006073
 30
0.0
  0
VERTEX
  5
95
100
AcDbEntity
  8
0
100
AcDbVertex
100
AcDb2dVertex
 10
96.302658
 20
85.006073
 30
0.0
  0
VERTEX
  5
96
100
AcDbEntity
  8
0
100
AcDbVertex
100
AcDb2dVertex
 10
96.302658
 20
135.006073
 30
0.0
  0
VERTEX
  5
97
100
AcDbEntity
  8
0
100
AcDbVertex
100
AcDb2dVertex
 10
87.513031
 20
135.006073
 30
0.0
  0
VERTEX
  5
98
100
AcDbEntity
  8
0
100
AcDbVertex
100
AcDb2dVertex
 10
78.291138
 20
90.913857
 30
0.0
  0
VERTEX
  5
99
100
AcDbEntity
  8
0
100
AcDbVertex
100
AcDb2dVertex
 10
69.141281
 20
135.006073
 30
0.0
  0
VERTEX
  5
9A
100
AcDbEntity
  8
0
100
AcDbVertex
100
AcDb2dVertex
 10
60.279602
 20
135.006073
 30
0.0
  0
SEQEND
  5
9B
100
AcDbEntity
  8
0
  0
POLYLINE
  5
9C
100
AcDbEntity
  8
0
 62
     7
100
AcDb2dPolyline
 66
     1
 10
0.0
 20
0.0
 30
0.0
 70
     1
 71
    18
  0
VERTEX
  5
9D
100
AcDbEntity
  8
0
100
AcDbVertex
100
AcDb2dVertex
 10
103.147034
 20
110.006073
 30
0.0
  0
VERTEX
  5
9E
100
AcDbEntity
  8
0
100
AcDbVertex
100
AcDb2dVertex
 10
104.443863
 20
98.766876
 30
0.0
  0
VERTEX
  5
9F
100
AcDbEntity
  8
0
100
AcDbVertex
100
AcDb2dVertex
 10
108.190262
 20
90.481575
 30
0.0
  0
VERTEX
  5
A0
100
AcDbEntity
  8
0
100
AcDbVertex
100
AcDb2dVertex
 10
114.026001
 20
85.366302
 30
0.0
  0
VERTEX
  5
A1
100
AcDbEntity
  8
0
100
AcDbVertex
100
AcDb2dVertex
 10
121.662888
 20
83.637199
 30
0.0
  0
VERTEX
  5
A2
100
AcDbEntity
  8
0
100
AcDbVertex
100
AcDb2dVertex
 10
129.227722
 20
85.366302
 30
0.0
  0
VERTEX
  5
A3
100
AcDbEntity
  8
0
100
AcDbVertex
100
AcDb2dVertex
 10
135.135513
 20
90.481575
 30
0.0
  0
VERTEX
  5
A4
100
AcDbEntity
  8
0
100
AcDbVertex
100
AcDb2dVertex
 10
138.80986
 20
98.766876
 30
0.0
  0
VERTEX
  5
A5
100
AcDbEntity
  8
0
100
AcDbVertex
100
AcDb2dVertex
 10
140.178726
 20
110.006073
 30
0.0
  0
VERTEX
  5
A6
100
AcDbEntity
  8
0
100
AcDbVertex
100
AcDb2dVertex
 10
138.80986
 20
121.173218
 30
0.0
  0
VERTEX
  5
A7
100
AcDbEntity
  8
0
100
AcDbVertex
100
AcDb2dVertex
 10
137.224838
 20
125.712128
 30
0.0
  0
VERTEX
  5
A8
100
AcDbEntity
  8
0
100
AcDbVertex
100
AcDb2dVertex
 10
135.135513
 20
129.458527
 30
0.0
  0
VERTEX
  5
A9
100
AcDbEntity
  8
0
100
AcDbVertex
100
AcDb2dVertex
 10
129.227722
 20
134.573792
 30
0.0
  0
VERTEX
  5
AA
100
AcDbEntity
  8
0
100
AcDbVertex
100
AcDb2dVertex
 10
125.625427
 20
135.870621
 30
0.0
  0
VERTEX
  5
AB
100
AcDbEntity
  8
0
100
AcDbVertex
100
AcDb2dVertex
 10
121.662888
 20
136.374939
 30
0.0
  0
VERTEX
  5
AC
100
AcDbEntity
  8
0
100
AcDbVertex
100
AcDb2dVertex
 10
113.953949
 20
134.573792
 30
0.0
  0
VERTEX
  5
AD
100
AcDbEntity
  8
0
100
AcDbVertex
100
AcDb2dVertex
 10
108.11821
 20
129.530563
 30
0.0
  0
VERTEX
  5
AE
100
AcDbEntity
  8
0
100
AcDbVertex
100
AcDb2dVertex
 10
104.443863
 20
121.24527
 30
0.0
  0
SEQEND
  5
AF
100
AcDbEntity
  8
0
  0
POLYLINE
  5
B0
100
AcDbEntity
  8
0
 62
     7
100
AcDb2dPolyline
 66
     1
 10
0.0
 20
0.0
 30
0.0
 70
     1
 71
    16
  0
VERTEX
  5
B1
100
AcDbEntity
  8
0
100
AcDbVertex
100
AcDb2dVertex
 10
110.063461
 20
110.006073
 30
0.0
  0
VERTEX
  5
B2
100
AcDbEntity
  8
0
100
AcDbVertex
100
AcDb2dVertex
 10
110.855972
 20
118.723648
 30
0.0
  0
VERTEX
  5
B3
100
AcDbEntity
  8
0
100
AcDbVertex
100
AcDb2dVertex
 10
113.23349
 20
125.135757
 30
0.0
  0
VERTEX
  5
B4
100
AcDbEntity
  8
0
100
AcDbVertex
100
AcDb2dVertex
 10
116.907837
 20
129.026245
 30
0.0
  0
VERTEX
  5
B5
100
AcDbEntity
  8
0
100
AcDbVertex
100
AcDb2dVertex
 10
121.662888
 20
130.395126
 30
0.0
  0
VERTEX
  5
B6
100
AcDbEntity
  8
0
100
AcDbVertex
100
AcDb2dVertex
 10
126.345886
 20
129.026245
 30
0.0
  0
VERTEX
  5
B7
100
AcDbEntity
  8
0
100
AcDbVertex
100
AcDb2dVertex
 10
130.020233
 20
125.063705
 30
0.0
  0
VERTEX
  5
B8
100
AcDbEntity
  8
0
100
AcDbVertex
100
AcDb2dVertex
 10
132.397751
 20
118.651611
 30
0.0
  0
VERTEX
  5
B9
100
AcDbEntity
  8
0
100
AcDbVertex
100
AcDb2dVertex
 10
133.262314
 20
110.006073
 30
0.0
  0
VERTEX
  5
BA
100
AcDbEntity
  8
0
100
AcDbVertex
100
AcDb2dVertex
 10
132.397751
 20
101.288498
 30
0.0
  0
VERTEX
  5
BB
100
AcDbEntity
  8
0
100
AcDbVertex
100
AcDb2dVertex
 10
130.020233
 20
94.876389
 30
0.0
  0
VERTEX
  5
BC
100
AcDbEntity
  8
0
100
AcDbVertex
100
AcDb2dVertex
 10
126.345886
 20
90.985901
 30
0.0
  0
VERTEX
  5
BD
100
AcDbEntity
  8
0
100
AcDbVertex
100
AcDb2dVertex
 10
121.662888
 20
89.689072
 30
0.0
  0
VERTEX
  5
BE
100
AcDbEntity
  8
0
100
AcDbVertex
100
AcDb2dVertex
 10
116.907837
 20
90.985901
 30
0.0
  0
VERTEX
  5
BF
100
AcDbEntity
  8
0
100
AcDbVertex
100
AcDb2dVertex
 10
113.23349
 20
94.876389
 30
0.0
  0
VERTEX
  5
C0
100
AcDbEntity
  8
0
100
AcDbVertex
100
AcDb2dVertex
 10
110.855972
 20
101.216446
 30
0.0
  0
SEQEND
  5
C1
100
AcDbEntity
  8
0
  0
POLYLINE
  5
C2
100
AcDbEntity
  8
0
 62
     7
100
AcDb2dPolyline
 66
     1
 10
0.0
 20
0.0
 30
0.0
 70
     1
 71
    18
  0
VERTEX
  5
C3
100
AcDbEntity
  8
0
100
AcDbVertex
100
AcDb2dVertex
 10
174.040421
 20
112.023361
 30
0.0
  0
VERTEX
  5
C4
100
AcDbEntity
  8
0
100
AcDbVertex
100
AcDb2dVertex
 10
179.083633
 20
116.202042
 30
0.0
  0
VERTEX
  5
C5
100
AcDbEntity
  8
0
100
AcDbVertex
100
AcDb2dVertex
 10
180.380478
 20
119.011841
 30
0.0
  0
VERTEX
  5
C6
100
AcDbEntity
  8
0
100
AcDbVertex
100
AcDb2dVertex
 10
180.812759
 20
122.470047
 30
0.0
  0
VERTEX
  5
C7
100
AcDbEntity
  8
0
100
AcDbVertex
100
AcDb2dVertex
 10
179.876144
 20
127.873505
 30
0.0
  0
VERTEX
  5
C8
100
AcDbEntity
  8
0
100
AcDbVertex
100
AcDb2dVertex
 10
177.06636
 20
131.763992
 30
0.0
  0
VERTEX
  5
C9
100
AcDbEntity
  8
0
100
AcDbVertex
100
AcDb2dVertex
 10
172.527451
 20
134.14151
 30
0.0
  0
VERTEX
  5
CA
100
AcDbEntity
  8
0
100
AcDbVertex
100
AcDb2dVertex
 10
166.187393
 20
135.006073
 30
0.0
  0
VERTEX
  5
CB
100
AcDbEntity
  8
0
100
AcDbVertex
100
AcDb2dVertex
 10
148.391983
 20
135.006073
 30
0.0
  0
VERTEX
  5
CC
100
AcDbEntity
  8
0
100
AcDbVertex
100
AcDb2dVertex
 10
148.391983
 20
85.006073
 30
0.0
  0
VERTEX
  5
CD
100
AcDbEntity
  8
0
100
AcDbVertex
100
AcDb2dVertex
 10
167.19603
 20
85.006073
 30
0.0
  0
VERTEX
  5
CE
100
AcDbEntity
  8
0
100
AcDbVertex
100
AcDb2dVertex
 10
173.896317
 20
86.014717
 30
0.0
  0
VERTEX
  5
CF
100
AcDbEntity
  8
0
100
AcDbVertex
100
AcDb2dVertex
 10
178.867508
 20
88.968613
 30
0.0
  0
VERTEX
  5
D0
100
AcDbEntity
  8
0
100
AcDbVertex
100
AcDb2dVertex
 10
181.965469
 20
93.651604
 30
0.0
  0
VERTEX
  5
D1
100
AcDbEntity
  8
0
100
AcDbVertex
100
AcDb2dVertex
 10
183.046188
 20
99.991661
 30
0.0
  0
VERTEX
  5
D2
100
AcDbEntity
  8
0
100
AcDbVertex
100
AcDb2dVertex
 10
182.397751
 20
104.242386
 30
0.0
  0
VERTEX
  5
D3
100
AcDbEntity
  8
0
100
AcDbVertex
100
AcDb2dVertex
 10
180.668655
 20
107.772644
 30
0.0
  0
VERTEX
  5
D4
100
AcDbEntity
  8
0
100
AcDbVertex
100
AcDb2dVertex
 10
177.858841
 20
110.366302
 30
0.0
  0
SEQEND
  5
D5
100
AcDbEntity
  8
0
  0
POLYLINE
  5
D6
100
AcDbEntity
  8
0
 62
     7
100
AcDb2dPolyline
 66
     1
 10
0.0
 20
0.0
 30
0.0
 70
     1
 71
    11
  0
VERTEX
  5
D7
100
AcDbEntity
  8
0
100
AcDbVertex
100
AcDb2dVertex
 10
164.818497
 20
114.25679
 30
0.0
  0
VERTEX
  5
D8
100
AcDbEntity
  8
0
100
AcDbVertex
100
AcDb2dVertex
 10
155.020248
 20
114.25679
 30
0.0
  0
VERTEX
  5
D9
100
AcDbEntity
  8
0
100
AcDbVertex
100
AcDb2dVertex
 10
155.020248
 20
129.026245
 30
0.0
  0
VERTEX
  5
DA
100
AcDbEntity
  8
0
100
AcDbVertex
100
AcDb2dVertex
 10
165.394882
 20
129.026245
 30
0.0
  0
VERTEX
  5
DB
100
AcDbEntity
  8
0
100
AcDbVertex
100
AcDb2dVertex
 10
169.285355
 20
128.593964
 30
0.0
  0
VERTEX
  5
DC
100
AcDbEntity
  8
0
100
AcDbVertex
100
AcDb2dVertex
 10
172.023117
 20
127.297134
 30
0.0
  0
VERTEX
  5
DD
100
AcDbEntity
  8
0
100
AcDbVertex
100
AcDb2dVertex
 10
173.680191
 20
125.063705
 30
0.0
  0
VERTEX
  5
DE
100
AcDbEntity
  8
0
100
AcDbVertex
100
AcDb2dVertex
 10
174.256546
 20
121.749588
 30
0.0
  0
VERTEX
  5
DF
100
AcDbEntity
  8
0
100
AcDbVertex
100
AcDb2dVertex
 10
173.608139
 20
118.435471
 30
0.0
  0
VERTEX
  5
E0
100
AcDbEntity
  8
0
100
AcDbVertex
100
AcDb2dVertex
 10
171.879044
 20
116.12999
 30
0.0
  0
VERTEX
  5
E1
100
AcDbEntity
  8
0
100
AcDbVertex
100
AcDb2dVertex
 10
168.925125
 20
114.689072
 30
0.0
  0
SEQEND
  5
E2
100
AcDbEntity
  8
0
  0
POLYLINE
  5
E3
100
AcDbEntity
  8
0
 62
     7
100
AcDb2dPolyline
 66
     1
 10
0.0
 20
0.0
 30
0.0
 70
     1
 71
    11
  0
VERTEX
  5
E4
100
AcDbEntity
  8
0
100
AcDbVertex
100
AcDb2dVertex
 10
166.403519
 20
90.985901
 30
0.0
  0
VERTEX
  5
E5
100
AcDbEntity
  8
0
100
AcDbVertex
100
AcDb2dVertex
 10
155.020248
 20
90.985901
 30
0.0
  0
VERTEX
  5
E6
100
AcDbEntity
  8
0
100
AcDbVertex
100
AcDb2dVertex
 10
155.020248
 20
108.204918
 30
0.0
  0
VERTEX
  5
E7
100
AcDbEntity
  8
0
100
AcDbVertex
100
AcDb2dVertex
 10
165.755112
 20
108.204918
 30
0.0
  0
VERTEX
  5
E8
100
AcDbEntity
  8
0
100
AcDbVertex
100
AcDb2dVertex
 10
170.294022
 20
107.7006
 30
0.0
  0
VERTEX
  5
E9
100
AcDbEntity
  8
0
100
AcDbVertex
100
AcDb2dVertex
 10
173.536087
 20
106.18763
 30
0.0
  0
VERTEX
  5
EA
100
AcDbEntity
  8
0
100
AcDbVertex
100
AcDb2dVertex
 10
175.481339
 20
103.593971
 30
0.0
  0
VERTEX
  5
EB
100
AcDbEntity
  8
0
100
AcDbVertex
100
AcDb2dVertex
 10
176.129745
 20
99.847572
 30
0.0
  0
VERTEX
  5
EC
100
AcDbEntity
  8
0
100
AcDbVertex
100
AcDb2dVertex
 10
175.481339
 20
95.885033
 30
0.0
  0
VERTEX
  5
ED
100
AcDbEntity
  8
0
100
AcDbVertex
100
AcDb2dVertex
 10
173.680191
 20
93.147285
 30
0.0
  0
VERTEX
  5
EE
100
AcDbEntity
  8
0
100
AcDbVertex
100
AcDb2dVertex
 10
170.654251
 20
91.490219
 30
0.0
  0
SEQEND
  5
EF
100
AcDbEntity
  8
0
  0
POLYLINE
  5
F0
100
AcDbEntity
  8
0
 62
     7
100
AcDb2dPolyline
 66
     1
 10
0.0
 20
0.0
 30
0.0
 70
     1
 71
    12
  0
VERTEX
  5
F1
100
AcDbEntity
  8
0
100
AcDbVertex
100
AcDb2dVertex
 10
205.0923
 20
91.057945
 30
0.0
  0
VERTEX
  5
F2
100
AcDbEntity
  8
0
100
AcDbVertex
100
AcDb2dVertex
 10
195.870377
 20
91.057945
 30
0.0
  0
VERTEX
  5
F3
100
AcDbEntity
  8
0
100
AcDbVertex
100
AcDb2dVertex
 10
195.870377
 20
85.006073
 30
0.0
  0
VERTEX
  5
F4
100
AcDbEntity
  8
0
100
AcDbVertex
100
AcDb2dVertex
 10
220.942429
 20
85.006073
 30
0.0
  0
VERTEX
  5
F5
100
AcDbEntity
  8
0
100
AcDbVertex
100
AcDb2dVertex
 10
220.942429
 20
91.057945
 30
0.0
  0
VERTEX
  5
F6
100
AcDbEntity
  8
0
100
AcDbVertex
100
AcDb2dVertex
 10
211.720535
 20
91.057945
 30
0.0
  0
VERTEX
  5
F7
100
AcDbEntity
  8
0
100
AcDbVertex
100
AcDb2dVertex
 10
211.720535
 20
128.954193
 30
0.0
  0
VERTEX
  5
F8
100
AcDbEntity
  8
0
100
AcDbVertex
100
AcDb2dVertex
 10
220.942429
 20
128.954193
 30
0.0
  0
VERTEX
  5
F9
100
AcDbEntity
  8
0
100
AcDbVertex
100
AcDb2dVertex
 10
220.942429
 20
135.006073
 30
0.0
  0
VERTEX
  5
FA
100
AcDbEntity
  8
0
100
AcDbVertex
100
AcDb2dVertex
 10
195.870377
 20
135.006073
 30
0.0
  0
VERTEX
  5
FB
100
AcDbEntity
  8
0
100
AcDbVertex
100
AcDb2dVertex
 10
195.870377
 20
128.954193
 30
0.0
  0
VERTEX
  5
FC
100
AcDbEntity
  8
0
100
AcDbVertex
100
AcDb2dVertex
 10
205.0923
 20
128.954193
 30
0.0
  0
SEQEND
  5
FD
100
AcDbEntity
  8
0
  0
POLYLINE
  5
FE
100
AcDbEntity
  8
0
 62
     7
100
AcDb2dPolyline
 66
     1
 10
0.0
 20
0.0
 30
0.0
 70
     1
 71
     6
  0
VERTEX
  5
FF
100
AcDbEntity
  8
0
100
AcDbVertex
100
AcDb2dVertex
 10
237.152817
 20
85.006073
 30
0.0
  0
VERTEX
  5
100
100
AcDbEntity
  8
0
100
AcDbVertex
100
AcDb2dVertex
 10
269.2854
 20
85.006073
 30
0.0
  0
VERTEX
  5
101
100
AcDbEntity
  8
0
100
AcDbVertex
100
AcDb2dVertex
 10
269.2854
 20
91.057945
 30
0.0
  0
VERTEX
  5
102
100
AcDbEntity
  8
0
100
AcDbVertex
100
AcDb2dVertex
 10
243.781052
 20
91.057945
 30
0.0
  0
VERTEX
  5
103
100
AcDbEntity
  8
0
100
AcDbVertex
100
AcDb2dVertex
 10
243.781052
 20
135.006073
 30
0.0
  0
VERTEX
  5
104
100
AcDbEntity
  8
0
100
AcDbVertex
100
AcDb2dVertex
 10
237.152817
 20
135.006073
 30
0.0
  0
SEQEND
  5
105
100
AcDbEntity
  8
0
  0
ENDSEC
  0
SECTION
  2
OBJECTS
  0
DICTIONARY
  5
19
100
AcDbDictionary
  3
ACAD_GROUP
350
1A
  3
ACAD_MLINESTYLE
350
1B
  0
DICTIONARY
  5
1A
102
{ACAD_REACTORS
330
19
102
}
100
AcDbDictionary
  0
DICTIONARY
  5
1B
102
{ACAD_REACTORS
330
19
102
}
100
AcDbDictionary
  3
STANDARD
350
1C
  0
MLINESTYLE
  5
1C
102
{ACAD_REACTORS
330
1B
102
}
100
AcDbMlineStyle
  2
STANDARD
 70
     0
  3

 62
     0
 51
90.0
 52
90.0
 71
     2
 49
0.5
 62
   256
  6
BYLAYER
 49
-0.5
 62
   256
  6
BYLAYER
  0
ENDSEC
  0
EOF
